
Format                                   : Matroska
Format version                           : Version 2
File size                                : 4.97 GiB
Duration                                 : 2h 10mn
Overall bit rate                         : 5 462 Kbps
Encoded date                             : UTC 2012-08-31 22:08:07
Writing application                      : mkvmerge v5.7.0 ('The Whirlwind') built on Jul  8 2012 20:08:51
Writing library                          : libebml v1.2.3 + libmatroska v1.3.0

Video
ID                                       : 1
Format                                   : AVC
Format/Info                              : Advanced Video Codec
Format profile                           : High@L4.1
Format settings, CABAC                   : Yes
Format settings, ReFrames                : 9 frames
Muxing mode                              : Header stripping
Codec ID                                 : V_MPEG4/ISO/AVC
Duration                                 : 2h 10mn
Bit rate                                 : 3 999 Kbps
Width                                    : 1 280 pixels
Height                                   : 688 pixels
Display aspect ratio                     : 1.85:1
Frame rate                               : 23.976 fps
Color space                              : YUV
Chroma subsampling                       : 4:2:0
Bit depth                                : 8 bits
Scan type                                : Progressive
Bits/(Pixel*Frame)                       : 0.189
Stream size                              : 3.49 GiB (70%)

Language                                 : English
Default                                  : Yes
Forced                                   : No

Audio
ID                                       : 2
Format                                   : DTS
Format/Info                              : Digital Theater Systems
Muxing mode                              : Header stripping
Codec ID                                 : A_DTS
Duration                                 : 2h 10mn
Bit rate mode                            : Constant
Bit rate                                 : 1 510 Kbps
Channel(s)                               : 6 channels
Channel positions                        : Front: L C R, Side: L R, LFE
Sampling rate                            : 48.0 KHz
Bit depth                                : 24 bits
Compression mode                         : Lossy
Stream size                              : 1.37 GiB (28%)
Default                                  : Yes
Forced                                   : No
 
http://img17.imageshack.us/img17/2764/79549942.png
 
http://img705.imageshack.us/img705/7176/93905879.png
 
http://img840.imageshack.us/img840/1348/95690479.png
 
http://img838.imageshack.us/img838/1228/87775725.png
 
http://img6.imageshack.us/img6/569/30317671.png
